<svg xmlns="http://www.w3.org/2000/svg" xmlns:xlink="http://www.w3.org/1999/xlink" width="300" zoomAndPan="magnify" viewBox="0 0 224.87999 225" height="300" preserveAspectRatio="xMidYMid meet" version="1.0"><defs><g/><clipPath id="d51bf1fa32"><path d="M 124 0.0585938 L 129 0.0585938 L 129 2 L 124 2 Z M 124 0.0585938 " clip-rule="nonzero"/></clipPath><clipPath id="7f0b1d79d0"><path d="M 98 0.0585938 L 105 0.0585938 L 105 4 L 98 4 Z M 98 0.0585938 " clip-rule="nonzero"/></clipPath><clipPath id="0b517518a7"><path d="M 5 1 L 224 1 L 224 224.867188 L 5 224.867188 Z M 5 1 " clip-rule="nonzero"/></clipPath></defs><path fill="#950101" d="M 87.121094 2.328125 C 87.09375 2.046875 87.042969 1.746094 86.964844 1.410156 C 86.523438 1.90625 86.675781 2.167969 87.121094 2.328125 Z M 87.121094 2.328125 " fill-opacity="1" fill-rule="nonzero"/><g clip-path="url(#d51bf1fa32)"><path fill="#950101" d="M 125.816406 1.304688 C 126.757812 1.3125 127.703125 1.320312 127.703125 1.320312 C 127.882812 1.359375 127.996094 1.375 128.070312 1.378906 C 128.097656 1.378906 128.125 1.371094 128.152344 1.371094 C 128.15625 1.246094 124.523438 0.191406 124.417969 1.300781 C 124.453125 1.300781 124.480469 1.300781 124.519531 1.296875 C 124.871094 1.300781 125.34375 1.300781 125.816406 1.304688 Z M 125.816406 1.304688 " fill-opacity="1" fill-rule="nonzero"/></g><path fill="#950101" d="M 107.664062 2.058594 C 107.234375 1.878906 106.757812 1.738281 106.257812 1.648438 C 106.65625 1.785156 107.136719 1.921875 107.664062 2.058594 Z M 107.664062 2.058594 " fill-opacity="1" fill-rule="nonzero"/><path fill="#950101" d="M 118.144531 3.226562 C 117.410156 3.019531 116.65625 2.855469 115.871094 2.742188 C 115.207031 2.648438 114.523438 2.59375 113.828125 2.585938 C 113.132812 2.605469 112.425781 2.679688 111.707031 2.800781 C 111.707031 2.800781 111.71875 2.820312 111.738281 2.851562 C 112.730469 2.992188 113.765625 3.109375 114.816406 3.171875 C 115.925781 3.273438 117.046875 3.277344 118.144531 3.226562 Z M 118.144531 3.226562 " fill-opacity="1" fill-rule="nonzero"/><g clip-path="url(#7f0b1d79d0)"><path fill="#950101" d="M 102.96875 2.265625 C 103.8125 2.082031 104.371094 1.957031 104.371094 1.957031 C 104.371094 1.957031 103.875 1.273438 103.378906 0.589844 C 102.875 -0.0859375 102.367188 -0.765625 102.367188 -0.765625 C 98.171875 -0.703125 98.6875 0.441406 99.125 1.621094 C 99.34375 2.207031 99.53125 2.808594 99.128906 3.292969 C 99.386719 3.222656 99.648438 3.152344 99.910156 3.085938 C 101.023438 2.785156 102.132812 2.488281 102.96875 2.265625 Z M 102.96875 2.265625 " fill-opacity="1" fill-rule="nonzero"/></g><path fill="#950101" d="M 99.121094 3.304688 C 99.125 3.300781 99.125 3.296875 99.128906 3.292969 C 98.292969 3.515625 97.5 3.746094 96.875 3.960938 C 96.054688 4.226562 95.507812 4.402344 95.507812 4.402344 C 96.609375 4.289062 97.402344 4.128906 97.980469 3.933594 C 98.558594 3.753906 98.917969 3.550781 99.121094 3.304688 Z M 99.121094 3.304688 " fill-opacity="1" fill-rule="nonzero"/><path fill="#950101" d="M 169.597656 212.691406 C 169.351562 213.039062 168.988281 213.429688 168.578125 213.839844 C 169.007812 213.707031 169.425781 213.546875 169.820312 213.308594 Z M 169.597656 212.691406 " fill-opacity="1" fill-rule="nonzero"/><path fill="#950101" d="M 169.019531 211.132812 L 169.597656 212.691406 C 170.101562 211.925781 170.125 211.34375 169.019531 211.132812 Z M 169.019531 211.132812 " fill-opacity="1" fill-rule="nonzero"/><path fill="#950101" d="M 154.78125 218.230469 C 153.640625 219.398438 152.429688 220.464844 152.429688 220.464844 C 153.476562 220.261719 155.222656 219.738281 156.410156 218.960938 C 157.601562 218.191406 158.210938 217.183594 157.039062 215.941406 C 157.039062 215.941406 155.910156 217.085938 154.78125 218.230469 Z M 154.78125 218.230469 " fill-opacity="1" fill-rule="nonzero"/><path fill="#950101" d="M 189.839844 179.03125 L 188.808594 178.324219 C 188.875 178.769531 189.121094 179.082031 189.839844 179.03125 Z M 189.839844 179.03125 " fill-opacity="1" fill-rule="nonzero"/><path fill="#950101" d="M 14.488281 68.984375 C 14.402344 68.75 14.273438 68.511719 14.078125 68.265625 C 14.078125 68.265625 14.238281 68.546875 14.488281 68.984375 Z M 14.488281 68.984375 " fill-opacity="1" fill-rule="nonzero"/><path fill="#950101" d="M 113.035156 221.03125 L 112.910156 220.855469 C 112.898438 220.925781 112.945312 220.984375 113.035156 221.03125 Z M 113.035156 221.03125 " fill-opacity="1" fill-rule="nonzero"/><path fill="#950101" d="M 172.34375 22.835938 C 172.636719 22.542969 172.835938 22.34375 172.835938 22.34375 C 172.59375 22.46875 172.441406 22.640625 172.34375 22.835938 Z M 172.34375 22.835938 " fill-opacity="1" fill-rule="nonzero"/><path fill="#950101" d="M 218.152344 139.25 C 218.085938 139.253906 218.023438 139.253906 217.960938 139.261719 C 217.953125 139.359375 217.953125 139.457031 217.949219 139.554688 C 218.015625 139.453125 218.078125 139.355469 218.152344 139.25 Z M 218.152344 139.25 " fill-opacity="1" fill-rule="nonzero"/><path fill="#950101" d="M 216.785156 148.738281 C 217.246094 145.964844 217.738281 142.605469 217.941406 139.710938 C 217.945312 139.660156 217.945312 139.609375 217.949219 139.554688 C 216.964844 141.027344 216.53125 142.253906 216.492188 143.617188 C 216.457031 145.070312 216.691406 146.648438 216.785156 148.738281 Z M 216.785156 148.738281 " fill-opacity="1" fill-rule="nonzero"/><path fill="#950101" d="M 208.445312 171.398438 C 208.667969 171.578125 208.914062 171.757812 209.207031 171.9375 C 209.167969 171.273438 208.875 171.199219 208.445312 171.398438 Z M 208.445312 171.398438 " fill-opacity="1" fill-rule="nonzero"/><path fill="#950101" d="M 202.171875 170.394531 C 202.171875 170.394531 202.941406 169.3125 203.671875 168.199219 C 204.375 167.066406 205.082031 165.9375 205.082031 165.9375 C 206.007812 167.226562 205.4375 168.777344 204.746094 170.148438 C 204.070312 171.53125 203.414062 172.804688 204.34375 173.785156 C 205.476562 174.125 207.386719 171.894531 208.445312 171.398438 C 206.589844 169.890625 207.136719 168.382812 207.496094 167.15625 C 207.894531 165.785156 208.007812 164.820312 204.234375 164.667969 C 204.066406 164.992188 203.898438 165.324219 203.738281 165.683594 C 203.1875 166.933594 202.691406 168.429688 202.171875 170.394531 Z M 202.171875 170.394531 " fill-opacity="1" fill-rule="nonzero"/><path fill="#950101" d="M 208.089844 154.171875 C 207.898438 156.183594 207.539062 157.738281 207.097656 159.042969 C 206.753906 159.933594 206.375 160.703125 205.984375 161.4375 C 206.40625 161.207031 206.847656 161.140625 207.304688 161.078125 C 208.480469 160.902344 209.824219 160.710938 210.765625 157.132812 C 210.765625 157.132812 210.097656 156.386719 209.433594 155.636719 C 208.761719 154.902344 208.089844 154.171875 208.089844 154.171875 Z M 208.089844 154.171875 " fill-opacity="1" fill-rule="nonzero"/><path fill="#950101" d="M 204.132812 164.660156 C 204.167969 164.664062 204.199219 164.664062 204.234375 164.667969 C 204.652344 163.859375 205.082031 163.136719 205.46875 162.394531 C 205.640625 162.082031 205.816406 161.761719 205.984375 161.4375 C 205.855469 161.511719 205.726562 161.597656 205.601562 161.707031 C 205.058594 162.167969 204.636719 163.042969 204.132812 164.660156 Z M 204.132812 164.660156 " fill-opacity="1" fill-rule="nonzero"/><path fill="#950101" d="M 189.382812 190.089844 C 189.855469 189.585938 190.308594 189.035156 190.726562 188.4375 C 190.726562 188.4375 190.703125 188.433594 190.671875 188.421875 C 189.867188 189.023438 189.054688 189.675781 188.269531 190.375 C 187.410156 191.085938 186.613281 191.875 185.875 192.6875 C 186.542969 192.316406 187.191406 191.894531 187.824219 191.425781 C 188.363281 191.019531 188.882812 190.578125 189.382812 190.089844 Z M 189.382812 190.089844 " fill-opacity="1" fill-rule="nonzero"/><path fill="#950101" d="M 194.113281 186.109375 C 194.542969 185.929688 194.980469 185.695312 195.394531 185.402344 C 195.019531 185.589844 194.582031 185.832031 194.113281 186.109375 Z M 194.113281 186.109375 " fill-opacity="1" fill-rule="nonzero"/><path fill="#950101" d="M 192.042969 186.421875 C 191.136719 186.230469 190.726562 185.523438 191.222656 184.046875 C 191.222656 184.046875 192.246094 184.019531 193.265625 183.992188 C 194.300781 183.949219 195.332031 183.90625 195.332031 183.90625 C 195.332031 183.90625 195.320312 183.398438 195.308594 182.640625 C 195.300781 181.886719 195.246094 180.871094 195.167969 179.855469 C 195.023438 177.832031 194.835938 175.878906 194.835938 175.878906 C 194.878906 177.3125 194.371094 178.496094 193.671875 179.503906 C 192.988281 180.523438 192.007812 181.292969 191.238281 182.042969 C 189.6875 183.546875 188.632812 184.746094 190.71875 186.960938 C 190.71875 186.960938 189.914062 187.132812 189.109375 187.300781 C 188.308594 187.460938 187.511719 187.621094 187.511719 187.621094 C 187.511719 187.621094 188.316406 187.828125 189.117188 188.035156 C 189.800781 188.207031 190.480469 188.375 190.671875 188.421875 C 191.90625 187.496094 193.097656 186.707031 194.113281 186.109375 C 193.355469 186.421875 192.621094 186.542969 192.042969 186.421875 Z M 192.042969 186.421875 " fill-opacity="1" fill-rule="nonzero"/><path fill="#950101" d="M 181.808594 199.464844 C 181.136719 200.128906 180.464844 200.789062 180.464844 200.789062 C 180.3125 200.890625 180.21875 200.960938 180.164062 201.003906 C 180.148438 201.027344 180.128906 201.050781 180.113281 201.070312 C 180.199219 201.160156 183.511719 199.339844 182.800781 198.480469 C 182.777344 198.503906 182.757812 198.527344 182.734375 198.554688 C 182.480469 198.804688 182.144531 199.132812 181.808594 199.464844 Z M 181.808594 199.464844 " fill-opacity="1" fill-rule="nonzero"/><path fill="#950101" d="M 201.050781 175.859375 C 200.351562 176.71875 199.902344 177.394531 199.632812 177.9375 C 199.351562 178.472656 199.242188 178.871094 199.269531 179.191406 C 199.269531 179.195312 199.273438 179.199219 199.273438 179.203125 C 199.707031 178.453125 200.105469 177.730469 200.394531 177.136719 C 200.785156 176.371094 201.050781 175.859375 201.050781 175.859375 Z M 201.050781 175.859375 " fill-opacity="1" fill-rule="nonzero"/><path fill="#950101" d="M 200.457031 180.382812 C 199.890625 180.121094 199.335938 179.828125 199.273438 179.203125 C 199.140625 179.433594 199.007812 179.667969 198.871094 179.902344 C 198.292969 180.898438 197.71875 181.894531 197.285156 182.640625 C 196.820312 183.367188 196.511719 183.855469 196.511719 183.855469 C 196.511719 183.855469 197.347656 183.984375 198.183594 184.117188 C 199.019531 184.238281 199.855469 184.363281 199.855469 184.363281 C 202.777344 181.351562 201.601562 180.90625 200.457031 180.382812 Z M 200.457031 180.382812 " fill-opacity="1" fill-rule="nonzero"/><path fill="#950101" d="M 1.285156 80.933594 C 1.214844 80.511719 1.191406 79.980469 1.195312 79.402344 C 0.980469 79.796875 0.800781 80.210938 0.6875 80.65625 Z M 1.285156 80.933594 " fill-opacity="1" fill-rule="nonzero"/><path fill="#950101" d="M 2.796875 81.628906 L 1.285156 80.933594 C 1.46875 81.828125 1.867188 82.257812 2.796875 81.628906 Z M 2.796875 81.628906 " fill-opacity="1" fill-rule="nonzero"/><path fill="#950101" d="M 6.046875 74.8125 C 7.492188 73.703125 8.0625 72.730469 5.84375 70.992188 C 5.84375 70.992188 5.167969 72.175781 4.492188 73.363281 C 4.15625 73.960938 3.820312 74.554688 3.570312 75.003906 C 3.316406 75.449219 3.15625 75.753906 3.15625 75.75 C 1.085938 74.6875 0.0546875 74.144531 1.84375 71.160156 C 0.628906 71.488281 0.445312 74.863281 0.199219 76.648438 L 0.933594 75.578125 C 1.253906 76.550781 1.179688 78.089844 1.195312 79.402344 C 2.328125 77.222656 4.570312 75.898438 6.046875 74.8125 Z M 6.046875 74.8125 " fill-opacity="1" fill-rule="nonzero"/><path fill="#950101" d="M 7.863281 69.761719 C 7.863281 69.761719 7.851562 68.152344 7.84375 66.546875 C 7.824219 64.914062 7.925781 63.304688 7.925781 63.304688 C 7.328125 64.1875 6.460938 65.792969 6.171875 67.179688 C 5.875 68.566406 6.15625 69.707031 7.863281 69.761719 Z M 7.863281 69.761719 " fill-opacity="1" fill-rule="nonzero"/><path fill="#950101" d="M 14.039062 65.070312 C 14.628906 64.167969 15.253906 63.359375 15.230469 62.3125 C 13.75 63.25 13.785156 62.660156 14.214844 61.632812 C 14.65625 60.617188 15.480469 59.171875 15.476562 58.378906 C 10.3125 62.394531 15.316406 61.667969 14.039062 65.070312 Z M 14.039062 65.070312 " fill-opacity="1" fill-rule="nonzero"/><path fill="#950101" d="M 14.039062 65.070312 C 13.769531 65.488281 13.511719 65.9375 13.363281 66.445312 C 13.699219 65.914062 13.886719 65.476562 14.039062 65.070312 Z M 14.039062 65.070312 " fill-opacity="1" fill-rule="nonzero"/><path fill="#950101" d="M 35.378906 35.070312 L 35.59375 35.105469 C 35.550781 35.042969 35.476562 35.035156 35.378906 35.070312 Z M 35.378906 35.070312 " fill-opacity="1" fill-rule="nonzero"/><g clip-path="url(#0b517518a7)"><path fill="#950101" d="M 223.332031 106.089844 C 222.855469 104.800781 222.316406 103.285156 221.949219 101.820312 C 221.589844 100.355469 221.519531 98.921875 222.160156 97.734375 L 219.882812 98.160156 C 219.871094 98.003906 219.855469 97.847656 219.839844 97.6875 C 219.648438 94.972656 219.519531 93.257812 219.535156 92.09375 C 219.515625 90.871094 219.585938 90.269531 219.699219 89.722656 C 219.804688 89.179688 219.929688 88.695312 219.953125 87.707031 C 219.960938 87.214844 219.945312 86.59375 219.886719 85.773438 C 219.796875 84.960938 219.65625 83.953125 219.4375 82.675781 C 219.4375 82.675781 218.578125 82.179688 217.71875 81.683594 C 217.476562 81.546875 217.242188 81.414062 217.023438 81.289062 C 216.875 80.730469 216.726562 80.175781 216.570312 79.625 C 216.585938 79.609375 216.597656 79.59375 216.613281 79.582031 C 216.515625 79.304688 216.414062 79.027344 216.3125 78.75 C 214.796875 73.589844 212.863281 68.609375 210.539062 63.851562 C 210.175781 62.648438 209.625 61.421875 208.753906 60.273438 C 208.753906 60.273438 208.773438 60.347656 208.800781 60.457031 C 207.636719 58.296875 206.394531 56.183594 205.074219 54.125 C 205.210938 54.007812 205.347656 53.867188 205.464844 53.671875 C 204.605469 52.398438 203.59375 51.289062 202.492188 50.3125 C 194.539062 39.144531 184.246094 29.757812 172.328125 22.863281 C 172.332031 22.855469 172.339844 22.84375 172.347656 22.835938 C 172.339844 22.84375 172.328125 22.851562 172.320312 22.859375 C 171.371094 22.308594 170.40625 21.78125 169.4375 21.261719 C 169.792969 20.863281 170.1875 20.457031 170.585938 20.046875 C 172.628906 17.945312 174.734375 15.6875 170.601562 13.933594 C 172.1875 15.867188 171.4375 17.566406 170.042969 18.566406 C 168.628906 19.574219 166.628906 19.828125 165.332031 18.894531 C 165.351562 18.976562 165.355469 19.085938 165.347656 19.207031 C 164.78125 18.9375 164.210938 18.671875 163.636719 18.414062 C 165.003906 17.949219 165.253906 17.082031 164.757812 16.195312 C 164.226562 15.242188 162.863281 14.257812 161.261719 13.941406 C 161.917969 14.25 162.453125 14.613281 162.863281 15.019531 C 163.265625 15.4375 163.550781 15.882812 163.714844 16.316406 C 164.007812 17.09375 163.902344 17.824219 163.464844 18.335938 C 162.601562 17.953125 161.730469 17.582031 160.851562 17.21875 C 160.664062 17.082031 160.476562 16.949219 160.289062 16.8125 C 160.566406 16.699219 160.875 16.496094 161.230469 16.160156 C 162.1875 14.554688 160.558594 12.773438 158.226562 11.0625 C 157.050781 10.238281 155.722656 9.390625 154.488281 8.570312 C 153.242188 7.800781 152.09375 7.019531 151.316406 6.214844 C 149.648438 5.992188 148.734375 6.28125 148.085938 6.746094 C 147.429688 7.226562 147.015625 7.96875 146.304688 8.886719 C 146.132812 7.796875 145.277344 6.867188 144.378906 6.019531 C 143.480469 5.171875 142.5625 4.320312 142.316406 3.222656 C 140.46875 3.605469 138.929688 3.621094 137.515625 3.390625 C 136.109375 3.152344 134.832031 2.65625 133.53125 2.269531 C 132.238281 1.867188 130.929688 1.445312 129.503906 1.335938 C 129.066406 1.316406 128.613281 1.332031 128.152344 1.371094 C 128.152344 1.382812 128.125 1.386719 128.070312 1.382812 C 127.046875 1.472656 125.972656 1.714844 124.808594 2.21875 C 124.507812 1.816406 124.398438 1.519531 124.417969 1.300781 C 124.125 1.3125 123.929688 1.316406 123.929688 1.316406 L 124.328125 1.769531 C 123.050781 2.519531 121.527344 2.929688 119.898438 3.097656 C 119.328125 3.15625 118.738281 3.195312 118.148438 3.226562 C 118.667969 3.371094 119.179688 3.539062 119.675781 3.742188 C 120.019531 3.890625 120.34375 4.058594 120.675781 4.214844 C 119.742188 4.300781 118.570312 4.453125 117.394531 4.589844 C 115.722656 4.765625 114.070312 5.023438 113.125 5.179688 C 112.972656 4.917969 112.769531 4.570312 112.5625 4.226562 C 112.199219 3.621094 111.839844 3.019531 111.738281 2.851562 C 110.210938 2.632812 108.808594 2.351562 107.664062 2.058594 C 108.417969 2.371094 109.027344 2.804688 109.347656 3.296875 C 109.585938 3.65625 109.65625 4.019531 109.535156 4.375 C 109.28125 4.386719 109.023438 4.40625 108.769531 4.417969 C 108.226562 4.457031 107.683594 4.472656 107.140625 4.503906 C 107.015625 4.386719 106.894531 4.269531 106.765625 4.148438 C 106.007812 3.449219 105.246094 2.75 105.246094 2.75 C 105.246094 2.75 104.894531 3.117188 104.367188 3.667969 C 104.09375 3.945312 103.777344 4.285156 103.445312 4.652344 C 101.585938 4.722656 99.742188 4.84375 97.945312 4.914062 C 95.617188 5.078125 93.371094 5.316406 91.289062 5.675781 C 89.558594 6.03125 87.953125 6.457031 86.511719 7.03125 C 87.136719 6.46875 88 6.109375 88.855469 5.828125 C 90.308594 5.328125 91.675781 4.890625 91.710938 3.539062 C 91.152344 2.5 88.222656 2.726562 87.125 2.328125 C 87.367188 4.707031 85.914062 5.386719 84.792969 6 C 83.65625 6.625 82.925781 7.179688 84.710938 9.347656 C 84.589844 9.71875 84.601562 10.027344 84.875 10.207031 C 84.179688 10.414062 83.511719 10.59375 82.855469 10.800781 C 82.511719 10.898438 82.164062 11.003906 81.816406 11.113281 C 81.957031 11.152344 82.109375 11.183594 82.273438 11.191406 C 82.933594 11.246094 83.773438 10.96875 85.085938 10.304688 C 85.535156 10.449219 86.355469 10.410156 87.78125 10.082031 C 86.097656 11.746094 83.90625 12.3125 81.515625 12.347656 C 80.605469 12.40625 79.667969 12.378906 78.734375 12.339844 C 78.933594 12.230469 79.136719 12.117188 79.332031 12.023438 C 80.207031 11.632812 81.023438 11.359375 81.816406 11.113281 C 81.355469 10.980469 80.996094 10.714844 80.628906 10.4375 C 79.671875 9.730469 78.585938 8.917969 75.390625 10.78125 C 75.390625 10.78125 75.351562 11.433594 75.304688 12.207031 C 75.003906 12.203125 74.691406 12.1875 74.402344 12.195312 C 74.402344 12.195312 74.554688 11.9375 74.789062 11.550781 C 75.019531 11.15625 75.335938 10.648438 75.65625 10.148438 C 76.316406 9.140625 76.972656 8.132812 76.972656 8.132812 C 71.175781 10.117188 64.519531 11.460938 58.214844 13.738281 C 51.929688 15.972656 46.011719 19.0625 42.253906 23.492188 L 45.265625 24.375 C 44.765625 24.796875 44.257812 25.203125 43.746094 25.597656 C 43.238281 26.003906 42.738281 26.410156 42.230469 26.796875 C 41.214844 27.578125 40.179688 28.304688 39.140625 29 C 37.125 30.460938 35.078125 31.765625 33.21875 33.082031 C 31.390625 34.433594 29.625 35.660156 28.25 36.992188 C 26.863281 38.3125 25.753906 39.617188 25.09375 40.953125 C 29.140625 39.726562 28.59375 41.101562 27.03125 42.996094 C 26.664062 43.488281 26.226562 44.015625 25.773438 44.550781 C 25.625 44.621094 25.464844 44.679688 25.304688 44.726562 L 25.507812 44.867188 C 24.214844 46.386719 22.890625 47.914062 22.730469 48.769531 C 23.464844 48.183594 24.207031 47.53125 24.949219 46.835938 C 25.414062 46.390625 25.871094 45.910156 26.320312 45.421875 L 27.222656 46.039062 C 25.253906 48.308594 24.050781 49.710938 23.167969 50.570312 C 22.320312 51.449219 21.84375 51.824219 21.375 52.128906 C 20.914062 52.441406 20.484375 52.695312 19.769531 53.378906 C 19.414062 53.71875 18.984375 54.171875 18.449219 54.792969 C 17.9375 55.429688 17.324219 56.242188 16.574219 57.296875 C 16.574219 57.296875 16.828125 58.257812 17.085938 59.214844 C 17.21875 59.6875 17.347656 60.164062 17.445312 60.519531 C 17.558594 60.875 17.628906 61.113281 17.628906 61.113281 C 17.839844 61.441406 18.082031 59.128906 18.691406 56.886719 C 19.257812 54.632812 20.382812 52.574219 21.863281 53.433594 C 21.75 54.269531 21.585938 55.109375 21.382812 55.960938 C 21.191406 56.816406 20.996094 57.699219 20.757812 58.578125 C 20.527344 59.460938 20.269531 60.351562 20.007812 61.246094 C 19.75 62.144531 19.535156 63.070312 19.300781 63.988281 C 19.070312 64.910156 18.847656 65.832031 18.644531 66.753906 C 18.457031 67.679688 18.328125 68.621094 18.214844 69.546875 C 18.109375 70.472656 18.035156 71.394531 18.011719 72.300781 C 18 73.214844 18.082031 74.125 18.203125 75.011719 C 18.203125 75.011719 17.105469 73.378906 16.070312 71.6875 C 15.460938 70.675781 14.867188 69.648438 14.488281 68.984375 C 14.964844 70.296875 13.867188 71.457031 12.5 73.023438 C 11.679688 73.9375 10.730469 74.984375 9.910156 76.238281 C 9.144531 77.5 8.511719 78.972656 8.277344 80.691406 C 8.277344 80.691406 9.082031 79.359375 9.886719 78.027344 C 10.292969 77.371094 10.679688 76.710938 11 76.230469 C 11.324219 75.746094 11.539062 75.425781 11.539062 75.425781 C 12.453125 76.941406 12.777344 78.6875 12.660156 80.566406 C 12.519531 82.445312 12.128906 84.507812 11.644531 86.652344 C 11.519531 87.1875 11.398438 87.730469 11.273438 88.273438 C 11.171875 88.820312 11.070312 89.371094 10.96875 89.925781 C 10.777344 91.03125 10.609375 92.144531 10.496094 93.242188 C 10.300781 95.445312 10.460938 97.605469 11.09375 99.523438 C 11.269531 97.476562 11.460938 95.429688 13.113281 95.246094 C 13.253906 95.429688 13.367188 95.644531 13.457031 95.875 C 13.449219 96.644531 13.5 96.789062 13.675781 96.691406 C 13.804688 97.511719 13.746094 98.484375 13.570312 99.507812 C 13.300781 101.242188 12.796875 103.109375 12.269531 104.503906 C 12.054688 104.460938 11.851562 104.394531 11.660156 104.316406 C 11.441406 102.941406 11.539062 101.59375 12.480469 99.726562 C 12.480469 99.726562 11.660156 99.863281 10.835938 99.996094 C 10.011719 100.140625 9.1875 100.289062 9.1875 100.289062 C 9.207031 100.601562 9.238281 100.914062 9.269531 101.222656 C 9.269531 101.21875 9.269531 101.21875 9.265625 101.214844 C 8.636719 99.476562 8.542969 97.28125 8.394531 95.171875 C 8.207031 90.960938 8.390625 87.085938 5.933594 87.683594 C 5.5 89.910156 5.523438 92.125 5.882812 94.238281 C 6.285156 96.355469 6.894531 98.363281 7.5625 100.222656 C 8.265625 102.085938 8.953125 103.804688 9.367188 105.382812 C 9.820312 106.960938 10.042969 108.402344 9.707031 109.746094 C 9.707031 109.746094 8.824219 108.683594 7.941406 107.617188 C 7.503906 107.074219 7.0625 106.527344 6.734375 106.121094 C 6.398438 105.707031 6.199219 105.429688 6.199219 105.429688 C 6.199219 105.429688 6.253906 105.699219 6.371094 106.101562 C 6.484375 106.503906 6.632812 107.039062 6.78125 107.578125 C 7.085938 108.640625 7.386719 109.707031 7.386719 109.707031 L 7.601562 108.441406 C 9.015625 109.320312 8.941406 110.660156 8.722656 112.234375 C 8.523438 113.800781 8.113281 115.609375 8.6875 117.261719 C 8.6875 117.261719 7.78125 116.773438 6.878906 116.285156 C 5.972656 115.78125 5.066406 115.277344 5.066406 115.277344 C 5.066406 115.277344 5.09375 115.683594 5.132812 116.289062 C 5.179688 116.894531 5.203125 117.703125 5.300781 118.511719 C 5.480469 120.125 5.664062 121.738281 5.664062 121.738281 L 6.488281 120.804688 C 9.289062 130.910156 10.949219 139.476562 12.300781 149.117188 C 12.300781 149.117188 12.257812 148.757812 12.195312 148.222656 C 12.140625 147.683594 12.035156 146.980469 11.996094 146.253906 C 11.898438 144.824219 11.796875 143.390625 11.796875 143.390625 C 12.609375 143.617188 13.695312 146.386719 14.214844 148.921875 C 15.070312 148.175781 14.660156 146.308594 14.460938 144.550781 C 14.265625 143.097656 14.109375 141.78125 14.609375 141.347656 C 15.058594 143.882812 15.609375 146.40625 16.261719 148.910156 C 16.296875 149.5 16.320312 150.078125 16.332031 150.664062 C 16.359375 152.003906 16.445312 153.332031 16.605469 154.914062 C 16.691406 155.703125 16.804688 156.550781 16.972656 157.480469 C 17.171875 158.394531 17.417969 159.394531 17.742188 160.5 C 18.339844 160.566406 18.792969 159.578125 19.347656 158.59375 C 19.976562 160.253906 20.660156 161.898438 21.386719 163.527344 C 20.835938 163.914062 19.976562 163.882812 18.484375 163.023438 C 20.996094 165.285156 21.082031 166.601562 21.246094 167.742188 C 21.40625 168.867188 21.707031 169.777344 24.546875 170.957031 C 24.0625 170.542969 23.703125 169.664062 23.355469 168.785156 C 23.433594 168.53125 23.527344 168.363281 23.636719 168.234375 C 24.824219 170.554688 26.109375 172.832031 27.496094 175.066406 C 27.53125 176.96875 27.90625 178.875 29.484375 181.355469 C 29.484375 181.355469 29.972656 181.773438 30.707031 182.40625 C 31.445312 183.035156 32.476562 183.824219 33.484375 184.621094 C 34.253906 185.242188 35.035156 185.835938 35.707031 186.335938 C 36.230469 186.953125 36.761719 187.566406 37.304688 188.175781 C 37.042969 188.386719 36.695312 188.445312 36.695312 188.445312 C 37.644531 189.207031 38.554688 190.015625 39.457031 190.835938 C 40.382812 191.632812 41.289062 192.449219 42.175781 193.28125 C 42.320312 193.421875 42.472656 193.554688 42.617188 193.691406 C 42.832031 193.898438 43.042969 194.101562 43.257812 194.304688 C 43.324219 194.757812 43.609375 195.203125 44.261719 195.566406 C 44.527344 195.699219 44.761719 195.804688 44.972656 195.882812 C 44.996094 195.902344 45.023438 195.925781 45.046875 195.945312 C 45.863281 196.683594 46.675781 197.410156 47.460938 198.136719 C 49.226562 199.664062 50.984375 201.085938 52.710938 202.300781 C 53.335938 202.710938 53.957031 203.089844 54.570312 203.453125 C 57.0625 205.171875 59.617188 206.761719 62.222656 208.21875 C 62.222656 208.238281 62.226562 208.253906 62.222656 208.273438 C 62.441406 208.378906 62.671875 208.476562 62.890625 208.578125 C 63.996094 209.183594 65.109375 209.769531 66.234375 210.328125 C 65.328125 210.519531 64.570312 210.679688 64.570312 210.679688 C 70.074219 213.375 75.730469 217.125 81.800781 219.972656 C 87.824219 222.832031 94.195312 224.828125 99.988281 224.351562 L 98.480469 221.601562 C 99.136719 221.65625 99.78125 221.726562 100.421875 221.808594 C 101.066406 221.878906 101.707031 221.945312 102.34375 222.03125 C 103.613281 222.199219 104.863281 222.414062 106.085938 222.65625 C 108.546875 223.046875 110.917969 223.574219 113.164062 223.957031 C 115.410156 224.289062 117.527344 224.671875 119.441406 224.703125 C 121.355469 224.746094 123.0625 224.609375 124.476562 224.128906 C 120.746094 222.140625 122.105469 221.554688 124.550781 221.316406 C 127.011719 220.964844 130.65625 220.972656 131.679688 220.273438 C 130.746094 220.167969 129.757812 220.105469 128.742188 220.074219 C 127.726562 220.050781 126.683594 220.089844 125.636719 220.164062 C 123.539062 220.332031 121.429688 220.472656 119.535156 220.71875 C 116.257812 221.046875 113.628906 221.316406 113.039062 221.023438 L 113.265625 221.339844 C 113.265625 221.339844 112.410156 221.429688 111.117188 221.480469 C 109.828125 221.539062 108.097656 221.628906 106.355469 221.679688 C 104.609375 221.667969 102.867188 221.660156 101.558594 221.652344 C 100.898438 221.648438 100.351562 221.636719 99.96875 221.609375 C 99.585938 221.589844 99.367188 221.574219 99.367188 221.574219 L 99.804688 219.894531 C 111.132812 220.96875 122.613281 220.027344 133.667969 217.082031 C 133.671875 217.09375 133.671875 217.105469 133.675781 217.113281 C 133.675781 217.105469 133.675781 217.089844 133.675781 217.078125 C 134.738281 216.796875 135.792969 216.492188 136.847656 216.171875 C 136.875 216.703125 136.882812 217.269531 136.894531 217.839844 C 136.9375 220.773438 137.042969 223.859375 141.207031 222.179688 C 138.71875 221.929688 138.042969 220.199219 138.328125 218.507812 C 138.613281 216.796875 139.847656 215.203125 141.425781 214.945312 C 141.351562 214.902344 141.273438 214.828125 141.191406 214.738281 C 141.78125 214.523438 142.375 214.3125 142.964844 214.085938 C 142.324219 215.378906 142.761719 216.171875 143.742188 216.449219 C 144.554688 216.679688 145.742188 216.566406 146.867188 216.078125 C 148.183594 216.4375 147.757812 216.800781 146.800781 217.191406 C 145.769531 217.597656 144.164062 218.039062 143.605469 218.601562 C 149.203125 219.300781 146.964844 217.148438 148.363281 215.582031 C 149.363281 215.75 150.625 215.671875 151.992188 215.460938 C 153.40625 215.214844 154.941406 214.875 156.394531 214.582031 C 157.585938 214.300781 158.722656 214.085938 159.71875 214.03125 C 159.335938 214.445312 159.183594 215.199219 159.339844 216.488281 C 159.339844 216.488281 160.65625 216.128906 161.972656 215.765625 C 162.632812 215.582031 163.292969 215.398438 163.785156 215.257812 C 164.28125 215.121094 164.609375 215.023438 164.609375 215.023438 C 165.320312 217.242188 165.664062 218.351562 162.289062 219.199219 C 163.378906 219.824219 165.894531 217.570312 167.332031 216.480469 L 166.058594 216.714844 C 166.519531 215.800781 167.660156 214.765625 168.578125 213.828125 C 166.234375 214.566406 163.710938 213.921875 161.898438 213.644531 C 161.5 213.59375 161.136719 213.566406 160.8125 213.589844 C 161.757812 212.75 162.105469 212.023438 162.21875 211.34375 C 162.339844 210.539062 162.109375 209.722656 161.960938 208.574219 C 162.851562 209.222656 164.117188 209.277344 165.351562 209.238281 C 166.585938 209.207031 167.835938 209.15625 168.789062 209.761719 C 169.824219 208.183594 170.902344 207.085938 172.0625 206.25 C 173.226562 205.425781 174.480469 204.875 175.671875 204.226562 C 176.875 203.597656 178.097656 202.972656 179.183594 202.039062 C 179.503906 201.742188 179.8125 201.414062 180.113281 201.058594 C 180.105469 201.054688 180.121094 201.03125 180.164062 200.996094 C 180.820312 200.207031 181.410156 199.277344 181.875 198.097656 C 182.378906 198.171875 182.664062 198.304688 182.800781 198.472656 C 183.003906 198.257812 183.136719 198.113281 183.136719 198.113281 L 182.535156 198.078125 C 182.90625 196.644531 183.691406 195.28125 184.730469 194.007812 C 185.089844 193.558594 185.476562 193.117188 185.875 192.679688 C 185.402344 192.941406 184.925781 193.1875 184.429688 193.390625 C 182 194.363281 179.566406 194.925781 177.160156 195.191406 C 175.699219 195.378906 174.324219 195.523438 173.039062 195.691406 C 174.179688 194.660156 175.300781 193.59375 176.402344 192.5 C 177.066406 192.964844 177.707031 193.410156 177.707031 193.410156 C 178.746094 192.226562 179.632812 190.996094 180.429688 189.734375 C 181.199219 188.503906 181.839844 187.179688 182.488281 185.863281 C 184.605469 183.328125 186.570312 180.707031 188.386719 178.015625 L 188.808594 178.3125 C 188.765625 178 189.382812 177.183594 190.390625 175.90625 C 190.898438 175.277344 191.519531 174.546875 192.230469 173.734375 C 192.917969 172.898438 193.679688 171.96875 194.503906 170.960938 C 194.53125 170.929688 194.558594 170.894531 194.582031 170.863281 C 201.65625 163.253906 207.511719 154.496094 211.824219 144.894531 C 211.855469 144.875 211.886719 144.851562 211.917969 144.832031 C 212.414062 144.488281 212.898438 144.121094 213.210938 144.199219 C 213.519531 144.273438 213.671875 144.800781 213.332031 146.207031 C 213.375 147.015625 213.839844 144.9375 213.890625 142.539062 C 213.933594 141.691406 213.925781 140.8125 213.855469 140.011719 C 214.132812 139.285156 214.402344 138.550781 214.667969 137.8125 C 215.140625 138.824219 216.113281 139.386719 217.960938 139.25 C 218.070312 136.554688 217.949219 134.335938 217.21875 133.492188 L 217.875 133.984375 C 217.875 133.984375 217.488281 132.707031 216.808594 130.992188 C 217.230469 129.453125 217.613281 127.894531 217.957031 126.320312 C 218.757812 127.742188 219.707031 128.597656 221.097656 127.871094 C 221.097656 127.871094 220.503906 126.625 219.914062 125.375 C 219.625 124.761719 219.300781 124.148438 219.054688 123.695312 C 218.8125 123.238281 218.648438 122.9375 218.648438 122.9375 C 221.457031 124.636719 220.691406 118.152344 222.796875 119.363281 C 222.796875 119.363281 222.765625 119.148438 222.683594 118.777344 C 222.605469 118.410156 222.496094 117.878906 222.363281 117.246094 C 222.074219 115.980469 221.78125 114.296875 221.320312 112.636719 C 220.898438 111.058594 220.503906 109.496094 220.152344 108.289062 C 220.171875 107.488281 220.183594 106.679688 220.183594 105.871094 L 222.15625 105.335938 C 222.15625 105.335938 221.9375 106.191406 221.71875 107.046875 C 221.605469 107.46875 221.496094 107.890625 221.410156 108.210938 C 221.316406 108.527344 221.253906 108.738281 221.253906 108.738281 C 222.914062 109.511719 223.660156 109.515625 223.882812 108.972656 C 224.121094 108.441406 223.804688 107.375 223.332031 106.089844 Z M 28.566406 65.828125 C 28.875 64.921875 29.175781 64.042969 29.394531 63.15625 C 29.445312 62.957031 29.488281 62.761719 29.535156 62.566406 C 30.304688 62.050781 31.015625 62.285156 31.601562 64.078125 C 31.601562 64.078125 30.476562 65.113281 29.351562 66.144531 C 28.761719 66.742188 28.175781 67.332031 27.761719 67.75 C 28.070312 67.109375 28.347656 66.46875 28.566406 65.828125 Z M 30.125 59.921875 C 30.273438 59.296875 30.417969 58.671875 30.574219 58.074219 C 30.695312 57.609375 30.824219 57.160156 30.964844 56.722656 C 31.195312 58.214844 30.820312 59.191406 30.125 59.921875 Z M 35.386719 61.238281 C 35.820312 61.191406 36.320312 61.273438 36.914062 61.519531 C 36.363281 62.144531 35.824219 62.773438 35.292969 63.410156 C 35.296875 63.019531 35.304688 62.625 35.332031 62.226562 C 35.351562 61.894531 35.367188 61.5625 35.386719 61.238281 Z M 22.066406 82.859375 C 22.21875 81.714844 22.199219 80.429688 22.132812 79.097656 C 22.089844 77.410156 21.9375 75.644531 21.875 74.058594 C 21.871094 73.863281 21.875 73.675781 21.878906 73.484375 C 22.109375 72.964844 22.363281 72.511719 22.632812 72.1875 C 22.378906 72.265625 22.140625 72.375 21.90625 72.503906 C 21.953125 71.589844 22.058594 70.78125 22.269531 70.179688 C 22.441406 70.703125 23.191406 69.640625 24.113281 68.46875 C 25.019531 68.789062 25.953125 67.480469 26.890625 65.976562 C 27.28125 66.039062 27.492188 66.644531 27.398438 68.117188 C 27.269531 68.246094 27.195312 68.320312 27.195312 68.320312 C 27.261719 68.320312 27.320312 68.3125 27.382812 68.308594 C 27.378906 68.394531 27.375 68.46875 27.363281 68.558594 C 27.410156 68.472656 27.445312 68.390625 27.488281 68.304688 C 29.066406 68.214844 30.082031 67.652344 30.863281 66.898438 C 31.703125 66.101562 32.222656 65.042969 32.714844 64.042969 C 33.148438 63.152344 33.585938 62.324219 34.171875 61.796875 C 34.148438 61.863281 34.128906 61.921875 34.105469 61.984375 C 33.839844 62.761719 33.609375 63.609375 33.351562 64.441406 C 33.125 65.199219 32.902344 65.949219 32.6875 66.667969 C 32.289062 67.191406 31.894531 67.710938 31.507812 68.242188 C 31.398438 68.277344 31.296875 68.300781 31.222656 68.304688 C 31.214844 68.417969 31.234375 68.511719 31.253906 68.597656 C 27.867188 73.269531 24.957031 78.179688 22.523438 83.261719 C 22.355469 83.144531 22.207031 83.007812 22.066406 82.859375 Z M 218.230469 84.460938 C 219.347656 86.328125 219.992188 88.410156 218.726562 89.035156 C 218.386719 87.109375 217.984375 85.203125 217.53125 83.316406 C 217.765625 83.683594 218.003906 84.066406 218.230469 84.460938 Z M 160.222656 16.960938 C 160.160156 16.9375 160.101562 16.914062 160.039062 16.886719 C 160.066406 16.882812 160.089844 16.878906 160.117188 16.871094 C 160.152344 16.902344 160.1875 16.933594 160.222656 16.960938 Z M 157.839844 14.988281 C 157.722656 14.898438 157.609375 14.816406 157.492188 14.726562 C 157.492188 14.726562 157.636719 14.839844 157.863281 15.023438 C 157.941406 15.132812 158.015625 15.246094 158.089844 15.363281 C 158.335938 15.738281 158.578125 16.125 158.851562 16.421875 C 157.726562 15.988281 156.59375 15.574219 155.449219 15.183594 C 156.535156 13.617188 157.222656 14.113281 157.839844 14.988281 Z M 112.78125 5.238281 C 112.492188 5.289062 112.320312 5.320312 112.320312 5.320312 C 112.199219 5.167969 112.167969 4.996094 112.171875 4.832031 C 112.386719 4.976562 112.597656 5.117188 112.78125 5.238281 Z M 110.671875 3.851562 C 110.671875 3.851562 110.929688 4.023438 111.289062 4.253906 C 111.070312 4.273438 110.855469 4.296875 110.640625 4.308594 C 110.652344 4.164062 110.664062 4.015625 110.671875 3.851562 Z M 59.316406 16.914062 C 59.101562 17.089844 58.894531 17.265625 58.6875 17.441406 C 58.636719 17.390625 58.601562 17.34375 58.546875 17.292969 C 58.808594 17.140625 59.0625 17.019531 59.316406 16.914062 Z M 53.21875 21.582031 C 53.835938 21.390625 54.449219 21.222656 55.039062 21.066406 C 54.492188 21.777344 54.140625 22.414062 54.105469 22.925781 L 53.988281 22.117188 C 53.988281 22.117188 53.316406 23.359375 52.5625 25.136719 C 51.792969 26.902344 51.070312 29.316406 50.742188 31.488281 C 51.246094 30.074219 52.261719 28.761719 53.394531 27.542969 C 54.574219 26.375 55.875 25.304688 56.921875 24.277344 C 58.585938 22.761719 59.667969 21.324219 58.8125 19.703125 C 59.464844 19.226562 59.628906 18.632812 59.035156 17.839844 C 60.027344 17.535156 60.808594 17.113281 61.492188 16.535156 C 62.578125 16.625 63.460938 17.152344 64.042969 17.832031 C 63.664062 18.144531 63.261719 18.5 62.859375 18.886719 C 61.078125 20.484375 59.410156 22.589844 59.804688 23.457031 C 60.617188 23.296875 61.371094 21.917969 62.34375 20.964844 C 63.296875 19.996094 64.359375 19.335938 65.535156 20.5 C 68.109375 19.050781 67.105469 18.894531 65.917969 18.664062 C 66.003906 18.605469 66.082031 18.554688 66.175781 18.492188 C 67.023438 17.953125 68.152344 17.234375 69.28125 16.519531 C 70.414062 15.78125 71.582031 15.117188 72.464844 14.625 C 73.347656 14.125 73.9375 13.792969 73.9375 13.792969 C 75.480469 14.777344 74.398438 18.746094 73.199219 18.871094 C 72.230469 19.152344 71.191406 19.726562 70.101562 20.367188 C 69.015625 21.011719 67.863281 21.675781 66.714844 22.316406 C 64.414062 23.613281 62 24.46875 59.484375 23.789062 C 58.4375 25.445312 59.5625 25.9375 60.140625 26.527344 C 60.742188 27.136719 60.777344 27.746094 57.851562 29.765625 C 53.640625 30.421875 49.683594 32.3125 46.082031 34.660156 C 46.210938 33.3125 46.996094 31.523438 47.675781 29.777344 C 48.707031 27.25 49.566406 24.847656 47.382812 24.164062 C 47.382812 24.164062 46.921875 25.464844 46.457031 26.765625 C 46.367188 27.015625 46.28125 27.265625 46.199219 27.511719 C 45.109375 24.433594 49.28125 22.667969 53.21875 21.582031 Z M 43.050781 26.511719 C 43.519531 26.046875 43.917969 25.667969 44.207031 25.417969 C 44.492188 25.160156 44.65625 25.015625 44.65625 25.015625 L 46.171875 27.601562 C 46.058594 27.953125 45.953125 28.28125 45.871094 28.5625 C 45.722656 29.054688 45.625 29.382812 45.625 29.382812 C 44.878906 26.351562 41.175781 30.84375 40.28125 29.25 C 41.300781 28.242188 42.28125 27.269531 43.050781 26.511719 Z M 34.992188 35.003906 C 34.992188 35.003906 35.535156 34.332031 36.414062 33.386719 C 37.21875 32.503906 38.277344 31.335938 39.378906 30.160156 C 39.253906 30.355469 39.121094 30.554688 38.972656 30.78125 C 38.28125 31.878906 37.296875 33.28125 36.449219 34.777344 C 35.585938 36.261719 34.714844 37.726562 34.105469 38.851562 C 33.515625 39.984375 33.121094 40.738281 33.121094 40.738281 L 31.191406 39.636719 C 31.515625 39.242188 31.828125 38.863281 32.128906 38.5 C 32.15625 38.484375 32.183594 38.464844 32.210938 38.449219 C 32.589844 38.230469 32.96875 38.007812 33.253906 37.84375 C 33.542969 37.683594 33.738281 37.578125 33.738281 37.578125 C 33.644531 37.324219 33.554688 37.105469 33.46875 36.902344 C 34.359375 35.875 35.03125 35.183594 35.382812 35.066406 Z M 16.46875 86.917969 C 18.199219 81.660156 17.75 88.8125 19.789062 86.847656 C 20.269531 86.601562 20.644531 86.273438 20.945312 85.886719 C 20.972656 86.125 20.984375 86.375 20.984375 86.628906 C 20.257812 88.304688 19.585938 90.003906 18.960938 91.710938 C 18.320312 91.996094 17.75 91.761719 17.308594 91.148438 C 17.003906 90.71875 16.761719 90.113281 16.597656 89.386719 C 16.449219 88.660156 16.417969 87.820312 16.46875 86.917969 Z M 82.742188 216.703125 C 83.1875 216.828125 83.632812 216.957031 84.082031 217.078125 C 84.082031 217.128906 84.074219 217.171875 84.078125 217.226562 C 83.570312 217.09375 83.128906 216.914062 82.742188 216.703125 Z M 92.828125 218.984375 C 94.914062 219.335938 97.011719 219.613281 99.113281 219.828125 C 97.648438 220.820312 95.234375 220.136719 92.828125 218.984375 Z M 146.710938 215.867188 C 146.4375 215.917969 146.164062 215.949219 145.910156 215.953125 C 145.328125 215.9375 144.8125 215.824219 144.390625 215.632812 C 143.632812 215.289062 143.191406 214.699219 143.136719 214.027344 C 144.292969 213.585938 145.441406 213.121094 146.582031 212.632812 C 146.394531 212.921875 146.273438 213.347656 146.257812 213.988281 C 146.429688 214.667969 146.875 215.105469 147.515625 215.367188 C 147.226562 215.488281 146.957031 215.652344 146.710938 215.867188 Z M 149.042969 212.335938 C 148.601562 212.242188 148.15625 212.136719 147.753906 212.125 C 148.855469 211.636719 149.949219 211.128906 151.035156 210.597656 C 151.421875 212.726562 150.285156 212.609375 149.042969 212.335938 Z M 149.042969 212.335938 " fill-opacity="1" fill-rule="nonzero"/></g><path fill="#950101" d="M 133.675781 217.125 C 133.675781 217.539062 133.675781 217.820312 133.675781 217.820312 C 133.761719 217.558594 133.746094 217.332031 133.675781 217.125 Z M 133.675781 217.125 " fill-opacity="1" fill-rule="nonzero"/><g fill="#ffffff" fill-opacity="1"><g transform="translate(49.201351, 186.203241)"><g><path d="M 5.703125 -127.390625 L -3.796875 -130.25 L -3.796875 -133.09375 L 19.015625 -133.09375 C 25.609375 -133.09375 30.992188 -131.601562 35.171875 -128.625 C 39.359375 -125.644531 42.53125 -121.75 44.6875 -116.9375 L 78.34375 -40.3125 L 109.328125 -124.546875 L 95.078125 -130.25 L 95.078125 -133.09375 L 130.25 -133.09375 L 130.25 -130.25 L 115.03125 -124.546875 L 68.453125 1.90625 L 62.75 1.90625 Z M 5.703125 -127.390625 "/></g></g></g></svg>